<svg width="34" height="25" viewBox="0 0 34 25" fill="none" xmlns="http://www.w3.org/2000/svg">
<path d="M3.27539 12.2969V9.56057V6.82423C3.27539 5.81077 4.06818 5 5.05917 5L15.3647 5" stroke="#404040" stroke-miterlimit="10"/>
<path d="M30.8235 12.2969H30.7244V9.56057V6.82423C30.7244 5.81077 29.9316 5 28.9406 5H18.8325" stroke="#404040" stroke-miterlimit="10"/>
<path d="M17.0479 6.82423C17.0479 5.81077 17.8406 5 18.8316 5" stroke="#404040" stroke-miterlimit="10"/>
<path d="M17.0488 6.82423C17.0488 5.81077 16.256 5 15.265 5" stroke="#404040" stroke-miterlimit="10"/>
<path d="M17.0479 12.2978V9.56142V6.82507" stroke="#404040" stroke-miterlimit="10"/>
<path d="M33.3009 12.2971H0.697266" stroke="#404040" stroke-miterlimit="10"/>
<path d="M31.7162 18.1752H33.3018C33.4009 18.1752 33.5 18.0738 33.5 17.9725V15.1855V12.3985C33.5 12.2971 33.4009 12.2971 33.3018 12.2971H31.7162H1.98649H0.698198C0.599099 12.2971 0.5 12.3985 0.5 12.4998V15.2868V18.0738C0.5 18.1752 0.599099 18.1752 0.698198 18.1752H1.98649" stroke="#404040" stroke-miterlimit="10"/>
<path d="M0.5 18.0738C0.5 18.1752 0.599099 18.1752 0.698198 18.1752H1.98649M33.5 17.9725C33.5 18.0738 33.4009 18.1752 33.3018 18.1752H31.7162M33.5 12.9058V12.3985C33.5 12.2971 33.4009 12.2971 33.3018 12.2971H31.7162H1.98649H0.698198C0.599099 12.2971 0.5 12.3985 0.5 12.4998V12.9058" stroke="#404040" stroke-miterlimit="10"/>
<path d="M0.697266 18.1749H33.3009" stroke="#404040" stroke-miterlimit="10"/>
<path d="M15.3638 18.1749H18.3367" stroke="#404040" stroke-miterlimit="10"/>
<path d="M1.49023 17.973V17.973V19.9999" stroke="#404040" stroke-miterlimit="10"/>
<path d="M32.2109 19.9999V17.973" stroke="#404040" stroke-miterlimit="10"/>
<path d="M17.0488 12.2969V18.1749" stroke="#404040" stroke-miterlimit="10"/>
</svg>
